<?xml version="1.0" encoding="utf-8"?>
<!-- Generator: Adobe Illustrator 19.0.0, SVG Export Plug-In . SVG Version: 6.00 Build 0)  -->
<svg version="1.1" id="Layer_1" xmlns="http://www.w3.org/2000/svg" xmlns:xlink="http://www.w3.org/1999/xlink" x="0px" y="0px"
	 viewBox="0 0 128 128" style="enable-background:new 0 0 128 128;" xml:space="preserve">
<style type="text/css">
	.st0{fill:#FFFFFF;}
</style>
<g>
	<path id="XMLID_7_" class="st0" d="M63.8,128.1c-2.8,0-5.6-0.6-8.2-1.9l-38.9-19c-8-3.9-13.1-13.3-13.1-24.1l0-38
		c0-10.7,5.1-20.2,13.1-24.1L55.6,2c2.6-1.3,5.4-1.9,8.2-1.9c2.8,0,5.6,0.6,8.2,1.9l38.8,19c8,3.9,13.1,13.3,13.1,24.1v38
		c0,10.7-5.1,20.2-13.1,24.1l-38.9,19C69.4,127.5,66.6,128.1,63.8,128.1z M69.1,120.2l38.9-19c5.7-2.8,9.4-9.9,9.4-18.1v-38
		c0-8.2-3.7-15.3-9.4-18.1L69.1,8c-1.7-0.8-3.5-1.2-5.3-1.2c-1.8,0-3.6,0.4-5.3,1.2L19.6,27c-5.7,2.8-9.4,9.9-9.4,18.1l0,38
		c0,8.2,3.7,15.3,9.4,18.1l38.9,19c1.7,0.8,3.5,1.2,5.3,1.2C65.6,121.5,67.4,121.1,69.1,120.2z"/>
	<path id="XMLID_5_" class="st0" d="M63.8,114.9c-0.8,0-1.6-0.2-2.4-0.6l-38.9-19c-3.4-1.6-5.7-6.6-5.7-12.1l0-38
		c0-5.6,2.3-10.5,5.7-12.1l38.9-19c0.8-0.4,1.6-0.6,2.4-0.6c0.8,0,1.6,0.2,2.4,0.6L105,33c3.4,1.6,5.7,6.6,5.7,12.1v38
		c0,5.6-2.3,10.5-5.7,12.1l-38.9,19C65.4,114.7,64.6,114.9,63.8,114.9z M79.6,33.1h-4.7h-5.6h-0.5h-0.5h-4.6h0c-1.2,0-2.1,1-2.1,2.3
		v2.3v21.5v6.5V75v3.9c0,0.2,0,0.3,0,0.5c0,0.2,0,0.3,0,0.5c-0.5,4.8-4.5,8.6-9.5,8.6c-5.2,0-9.5-4.3-9.5-9.5c0-5.2,4.3-9.5,9.5-9.5
		c2.8,0,5.2,1.2,7,3.1v-8.3c-2.1-1-4.5-1.6-7-1.6c-9,0-16.3,7.3-16.3,16.3c0,9,7.3,16.3,16.3,16.3c8.7,0,15.8-6.8,16.3-15.4
		c0-0.2,0-0.3,0-0.5c0-0.2,0-0.3,0-0.5v-39h0.5h0.5h5.6v37.4v15.8c0,1.1,1,2.1,2.3,2.1c0,0,0,0,0,0h2.3h0c1.2,0,2.3-0.9,2.3-2.1
		V77.3V37.6v-2.3C81.7,34.1,80.7,33.1,79.6,33.1z"/>
</g>
</svg>
